<?xml version="1.0" encoding="UTF-8"?>
<svg id="_Слой_1" xmlns="http://www.w3.org/2000/svg" version="1.1" viewBox="0 0 198.54 198.54">
  <!-- Generator: Adobe Illustrator 30.0.0, SVG Export Plug-In . SVG Version: 2.1.1 Build 123)  -->
  <defs>
    <style>
      .st0 {
        fill: #fad4be;
      }

      .st1 {
        fill: #44c8d2;
      }
    </style>
  </defs>
  <path class="st0" d="M175.19,156.19c2.65-2.83,2.73-5.26,1.18-8.13-3.19-6.05-6.8-11.86-10.82-17.39-13.99-18.86-31.95-32.51-53.67-41.29-22.01-8.88-44.71-11.12-68.07-7.1-5.1.88-10.09,2.39-15.12,3.65-.55.13-1.07.36-1.53.69-.46.33-.85.74-1.14,1.22-.3.48-.49,1.01-.58,1.57-.09.56-.06,1.13.07,1.67.4,1.6,2.66.04,3.96-.36,25.41-7.96,50.66-7.53,75.74,1.3,23.1,8.1,41.92,22.15,56.63,41.76,5.25,6.89,9.25,14.47,13.36,22.41"/>
  <path class="st0" d="M54.74,91.39c-9.13.1-18.22,1.14-27.13,3.09-.93.16-1.84.42-2.71.76-1.87.83-2.06,2.83-1.74,4.25s1.98.48,3.02.23c10.18-2.61,20.7-3.71,31.2-3.26,44.94,2.24,78.83,22.86,101.74,61.55,1.86,3.27,3.53,6.63,5.02,10.08.89,1.98,1.66,2.37,3.11.52.96-1.23,1.29-2.4.51-3.88-.93-1.78-1.58-3.69-2.53-5.44-23.83-43.84-61.21-65.59-110.48-67.9"/>
  <path class="st1" d="M65.55,28.44c-6.41,10.59-5.19,22.08.14,30.8,5.28,8.64,14.74,14.8,25.14,14.67l-.07-5.66c-8.09.11-15.83-4.74-20.24-11.96-4.36-7.14-5.31-16.35-.13-24.92l-4.85-2.93h0ZM86.9,2.24c-8.08,7.83-15.41,16.39-21.35,26.2l4.85,2.93c5.62-9.29,12.61-17.47,20.44-25.06,0,0-3.94-4.07-3.94-4.07ZM94.42,1.69c-.61-.62-1.38-1.18-2.34-1.45-1.03-.29-1.98-.15-2.77.18-.71.3-1.25.74-1.58,1.03-.22.19-.76.72-.79.75l3.85,4.15c.15-.14.31-.29.42-.4.12-.12.21-.2.28-.27.08-.07.11-.1.12-.1s-.03.02-.12.06c-.09.04-.24.09-.42.1-.19.02-.37,0-.53-.05-.3-.08-.34-.2-.15-.01l4.02-3.99h.01ZM117.61,30.96c-6.19-11.23-14.49-20.51-23.19-29.27l-4.02,3.99c8.59,8.65,16.45,17.49,22.25,28.02l4.96-2.73h0ZM90.77,73.9c11.15.1,20.26-6.32,25.35-14.76,5.08-8.4,6.42-19.22,1.49-28.18l-4.96,2.73c3.75,6.81,2.9,15.45-1.37,22.52-4.26,7.04-11.66,12.1-20.46,12.02l-.05,5.66h0ZM67.97,29.9l2.42,1.47s-2.42-1.47-2.42-1.47ZM88.87,4.27l-1.93-2.07-.02.02-.02.02s1.97,2.03,1.97,2.03ZM92.41,3.68l-2.01,1.99h0s2.01-1.99,2.01-1.99ZM115.13,32.33l2.48-1.37-2.48,1.37ZM90.79,71.07l.03-2.83h-.06l.04,2.83h-.01Z"/>
  <path class="st0" d="M45.35,107.4c28.16.55,54.86,10.55,77.64,30.61,12.63,11.09,22.7,24.79,29.52,40.16.45,1,.5,2.99,2.39,2.37,1.16-.38,2.36-1.34,2.28-2.83-.14-.93-.45-1.83-.91-2.65-5.16-11.41-12.08-21.94-20.53-31.19-22.95-24.86-51.32-38.52-85.13-40.97-8.75-.65-17.43.04-26.1,1.15-2.37.3-2.92,1.81-2.83,3.7.13,2.62,2.12,1.29,3.19,1.13,6.79-.96,13.64-1.45,20.49-1.48"/>
  <path class="st0" d="M31.53,118.8c6.72-.17,13.45.35,20.06,1.57,27.35,4.64,50.33,17.28,69.13,37.61,7.97,8.7,14.6,18.54,19.68,29.2.39.79.5,2.01,1.75,1.91.53-.05,1.05-.23,1.5-.51.46-.28.84-.66,1.13-1.11.79-1.2-.11-2.27-.63-3.28-20.6-40.21-53.39-63.27-98.07-69.51-7.03-.86-14.12-1.07-21.19-.64-1.93.09-3.91,0-3.72,2.91.18,2.91,2.19,1.81,3.65,1.85,2.24.05,4.48,0,6.72,0"/>
  <path class="st0" d="M26.95,125.11c-.71-.05-1.42-.05-2.12,0-1.22.16-3.11-.76-3.02,1.72.06,1.9.71,3.16,2.93,3.02,1.3-.03,2.59.03,3.88.2,43.1,4.02,75.67,24.57,97.34,62.13,1.15,1.99,2.22,3.45,4.57,2.05s.39-2.94-.29-4.13c-22.81-40.07-57.7-61-103.29-64.98"/>
  <path class="st0" d="M25.47,137.22c-1.3-.23-1.38.86-1.03,2.42.52,2.36,2.34,2.58,4.25,2.91,26,4.43,48.28,16.02,66.85,34.78,5.7,5.79,10.79,12.17,15.16,19.02,1.42,2.17,3.49,2.46,5.15,1.31,1.66-1.15-.38-2.47-1.01-3.48-14.86-23.64-35.62-40.12-61.65-50.05-8.94-3.36-18.24-5.68-27.72-6.9"/>
  <path class="st0" d="M99.02,198.27c-18.01-23.95-41.01-39.17-69.93-47.05,1.11,3.37,1.97,5.49,4.95,6.44,22.09,6.8,41.72,19.89,56.48,37.68,2.17,2.58,4.47,3.57,8.49,2.93"/>
  <path class="st1" d="M137.8,77.42c-.77,1.81-1.18,3.76-1.19,5.72l4.25.02c0-1.4.29-2.79.85-4.08l-3.91-1.67h0ZM141.12,72.6c-1.42,1.37-2.54,3-3.32,4.81l3.91,1.67c.55-1.29,1.35-2.46,2.36-3.43,0,0-2.95-3.05-2.95-3.05ZM146.04,69.45c-1.83.71-3.51,1.78-4.92,3.15l2.95,3.05c1.01-.97,2.2-1.74,3.51-2.24,0,0-1.54-3.96-1.54-3.96ZM151.8,68.46c-1.97-.06-3.93.28-5.76.99l1.54,3.96c1.31-.51,2.7-.75,4.1-.71l.12-4.25h0ZM166.61,83.71c.09-8.59-6.32-15.2-14.85-15.25l-.03,4.25c6.14.04,10.7,4.69,10.63,10.96l4.25.04ZM151.73,98.61c8.29.06,14.78-6.53,14.88-14.9l-4.25-.05c-.07,6.13-4.74,10.74-10.6,10.7,0,0-.03,4.25-.03,4.25ZM136.62,83.14c-.06,8.77,6.37,15.41,15.11,15.47l.03-4.25c-6.35-.05-10.94-4.72-10.9-11.2l-4.25-.03h.01ZM151.74,70.58l-.06,2.12h.04v-2.12h.02ZM164.48,83.69l2.12.02h0l-2.12-.02ZM151.74,96.49l-.02,2.12h0v-2.12h.02ZM138.74,83.15h2.12s-2.12.01-2.12.01h0Z"/>
  <path class="st0" d="M43.58,172.34c5.92,7.98,22.61,19.3,28.79,19.75-8.52-8.03-18.24-14.69-28.79-19.75"/>
</svg>