<svg xmlns="http://www.w3.org/2000/svg">
  <symbol id="i-arrow-left" viewBox="0 0 448 512">
    <path fill="currentColor" d="M9.4 233.4c-12.5 12.5-12.5 32.8 0 45.3l160 160c12.5 12.5 32.8 12.5 45.3 0s12.5-32.8 0-45.3L109.2 288 416 288c17.7 0 32-14.3 32-32s-14.3-32-32-32l-306.7 0L214.6 118.6c12.5-12.5 12.5-32.8 0-45.3s-32.8-12.5-45.3 0l-160 160z"/>
  </symbol>

  <symbol id="i-arrow-right" viewBox="0 0 448 512">
    <path fill="currentColor" d="M438.6 278.6c12.5-12.5 12.5-32.8 0-45.3l-160-160c-12.5-12.5-32.8-12.5-45.3 0s-12.5 32.8 0 45.3L338.8 224 32 224c-17.7 0-32 14.3-32 32s14.3 32 32 32l306.7 0L233.4 393.4c-12.5 12.5-12.5 32.8 0 45.3s32.8 12.5 45.3 0l160-160z"/>
  </symbol>

  <symbol id="i-arrow-up" viewBox="0 0 384 512">
    <path fill="currentColor" d="M214.6 41.4c-12.5-12.5-32.8-12.5-45.3 0l-160 160c-12.5 12.5-12.5 32.8 0 45.3s32.8 12.5 45.3 0L160 141.2V448c0 17.7 14.3 32 32 32s32-14.3 32-32V141.2L329.4 246.6c12.5 12.5 32.8 12.5 45.3 0s12.5-32.8 0-45.3l-160-160z"/>
  </symbol>

  <symbol id="i-bars" viewBox="0 0 448 512">
    <path fill="currentColor" d="M0 96C0 78.3 14.3 64 32 64H416c17.7 0 32 14.3 32 32s-14.3 32-32 32H32C14.3 128 0 113.7 0 96zM0 256c0-17.7 14.3-32 32-32H416c17.7 0 32 14.3 32 32s-14.3 32-32 32H32c-17.7 0-32-14.3-32-32zM448 416c0 17.7-14.3 32-32 32H32c-17.7 0-32-14.3-32-32s14.3-32 32-32H416c17.7 0 32 14.3 32 32z"/>
  </symbol>

  <symbol id="i-bolt" viewBox="0 0 448 512">
    <path fill="currentColor" d="M349.4 44.6c5.9-13.7 1.5-29.7-10.6-38.5s-28.6-8-39.9 1.8l-256 224c-10 8.8-13.6 22.9-8.9 35.3S50.7 288 64 288H175.5L98.6 467.4c-5.9 13.7-1.5 29.7 10.6 38.5s28.6 8 39.9-1.8l256-224c10-8.8 13.6-22.9 8.9-35.3s-16.6-20.7-30-20.7H272.5L349.4 44.6z"/>
  </symbol>

  <symbol id="i-calendar-alt" viewBox="0 0 448 512">
    <path fill="currentColor" d="M128 0c17.7 0 32 14.3 32 32V64H288V32c0-17.7 14.3-32 32-32s32 14.3 32 32V64h48c26.5 0 48 21.5 48 48v48H0V112C0 85.5 21.5 64 48 64H96V32c0-17.7 14.3-32 32-32zM0 192H448V464c0 26.5-21.5 48-48 48H48c-26.5 0-48-21.5-48-48V192zm64 80v32c0 8.8 7.2 16 16 16h32c8.8 0 16-7.2 16-16V272c0-8.8-7.2-16-16-16H80c-8.8 0-16 7.2-16 16zm128 0v32c0 8.8 7.2 16 16 16h32c8.8 0 16-7.2 16-16V272c0-8.8-7.2-16-16-16H208c-8.8 0-16 7.2-16 16zm144-16c-8.8 0-16 7.2-16 16v32c0 8.8 7.2 16 16 16h32c8.8 0 16-7.2 16-16V272c0-8.8-7.2-16-16-16H336zM64 400v32c0 8.8 7.2 16 16 16h32c8.8 0 16-7.2 16-16V400c0-8.8-7.2-16-16-16H80c-8.8 0-16 7.2-16 16zm144-16c-8.8 0-16 7.2-16 16v32c0 8.8 7.2 16 16 16h32c8.8 0 16-7.2 16-16V400c0-8.8-7.2-16-16-16H208zm112 16v32c0 8.8 7.2 16 16 16h32c8.8 0 16-7.2 16-16V400c0-8.8-7.2-16-16-16H336c-8.8 0-16 7.2-16 16z"/>
  </symbol>

  <symbol id="i-calendar-check" viewBox="0 0 448 512">
    <path fill="currentColor" d="M128 0c17.7 0 32 14.3 32 32V64H288V32c0-17.7 14.3-32 32-32s32 14.3 32 32V64h48c26.5 0 48 21.5 48 48v48H0V112C0 85.5 21.5 64 48 64H96V32c0-17.7 14.3-32 32-32zM0 192H448V464c0 26.5-21.5 48-48 48H48c-26.5 0-48-21.5-48-48V192zM329 305c9.4-9.4 9.4-24.6 0-33.9s-24.6-9.4-33.9 0l-95 95-47-47c-9.4-9.4-24.6-9.4-33.9 0s-9.4 24.6 0 33.9l64 64c9.4 9.4 24.6 9.4 33.9 0L329 305z"/>
  </symbol>

  <symbol id="i-check" viewBox="0 0 448 512">
    <path fill="currentColor" d="M438.6 105.4c12.5 12.5 12.5 32.8 0 45.3l-256 256c-12.5 12.5-32.8 12.5-45.3 0l-128-128c-12.5-12.5-12.5-32.8 0-45.3s32.8-12.5 45.3 0L160 338.7 393.4 105.4c12.5-12.5 32.8-12.5 45.3 0z"/>
  </symbol>

  <symbol id="i-check-circle" viewBox="0 0 512 512">
    <path fill="currentColor" d="M256 512A256 256 0 1 0 256 0a256 256 0 1 0 0 512zM369 209L241 337c-9.4 9.4-24.6 9.4-33.9 0l-64-64c-9.4-9.4-9.4-24.6 0-33.9s24.6-9.4 33.9 0l47 47L335 175c9.4-9.4 24.6-9.4 33.9 0s9.4 24.6 0 33.9z"/>
  </symbol>

  <symbol id="i-check-double" viewBox="0 0 448 512">
    <path fill="currentColor" d="M342.6 86.6c12.5-12.5 12.5-32.8 0-45.3s-32.8-12.5-45.3 0L160 178.7l-57.4-57.4c-12.5-12.5-32.8-12.5-45.3 0s-12.5 32.8 0 45.3l80 80c12.5 12.5 32.8 12.5 45.3 0l160-160zm96 128c12.5-12.5 12.5-32.8 0-45.3s-32.8-12.5-45.3 0L160 402.7 54.6 297.4c-12.5-12.5-32.8-12.5-45.3 0s-12.5 32.8 0 45.3l128 128c12.5 12.5 32.8 12.5 45.3 0l256-256z"/>
  </symbol>

  <symbol id="i-chevron-down" viewBox="0 0 512 512">
    <path fill="currentColor" d="M233.4 406.6c12.5 12.5 32.8 12.5 45.3 0l192-192c12.5-12.5 12.5-32.8 0-45.3s-32.8-12.5-45.3 0L256 338.7 86.6 169.4c-12.5-12.5-32.8-12.5-45.3 0s-12.5 32.8 0 45.3l192 192z"/>
  </symbol>

  <symbol id="i-chevron-left" viewBox="0 0 320 512">
    <path fill="currentColor" d="M9.4 233.4c-12.5 12.5-12.5 32.8 0 45.3l192 192c12.5 12.5 32.8 12.5 45.3 0s12.5-32.8 0-45.3L77.3 256 246.6 86.6c12.5-12.5 12.5-32.8 0-45.3s-32.8-12.5-45.3 0l-192 192z"/>
  </symbol>

  <symbol id="i-chevron-right" viewBox="0 0 320 512">
    <path fill="currentColor" d="M310.6 233.4c12.5 12.5 12.5 32.8 0 45.3l-192 192c-12.5 12.5-32.8 12.5-45.3 0s-12.5-32.8 0-45.3L242.7 256 73.4 86.6c-12.5-12.5-12.5-32.8 0-45.3s32.8-12.5 45.3 0l192 192z"/>
  </symbol>

  <symbol id="i-clock" viewBox="0 0 512 512">
    <path fill="currentColor" d="M256 0a256 256 0 1 1 0 512A256 256 0 1 1 256 0zM232 120V256c0 8 4 15.5 10.7 20l96 64c11 7.4 25.9 4.4 33.3-6.7s4.4-25.9-6.7-33.3L280 243.2V120c0-13.3-10.7-24-24-24s-24 10.7-24 24z"/>
  </symbol>

  <symbol id="i-credit-card" viewBox="0 0 576 512">
    <path fill="currentColor" d="M64 32C28.7 32 0 60.7 0 96v32H576V96c0-35.3-28.7-64-64-64H64zM576 224H0V416c0 35.3 28.7 64 64 64H512c35.3 0 64-28.7 64-64V224zM112 352h64c8.8 0 16 7.2 16 16s-7.2 16-16 16H112c-8.8 0-16-7.2-16-16s7.2-16 16-16zm112 16c0-8.8 7.2-16 16-16H368c8.8 0 16 7.2 16 16s-7.2 16-16 16H240c-8.8 0-16-7.2-16-16z"/>
  </symbol>

  <symbol id="i-crosshairs" viewBox="0 0 512 512">
    <path fill="currentColor" d="M256 0c17.7 0 32 14.3 32 32V42.4c93.7 13.9 167.7 88 181.6 181.6H480c17.7 0 32 14.3 32 32s-14.3 32-32 32H469.6c-13.9 93.7-88 167.7-181.6 181.6V480c0 17.7-14.3 32-32 32s-32-14.3-32-32V469.6C130.3 455.7 56.3 381.7 42.4 288H32c-17.7 0-32-14.3-32-32s14.3-32 32-32H42.4C56.3 130.3 130.3 56.3 224 42.4V32c0-17.7 14.3-32 32-32zM107.4 288c12.5 58.3 58.4 104.1 116.6 116.6V384c0-17.7 14.3-32 32-32s32 14.3 32 32v20.6c58.3-12.5 104.1-58.4 116.6-116.6H384c-17.7 0-32-14.3-32-32s14.3-32 32-32h20.6C392.1 165.7 346.3 119.9 288 107.4V128c0 17.7-14.3 32-32 32s-32-14.3-32-32V107.4C165.7 119.9 119.9 165.7 107.4 224H128c17.7 0 32 14.3 32 32s-14.3 32-32 32H107.4zM256 224a32 32 0 1 1 0 64 32 32 0 1 1 0-64z"/>
  </symbol>

  <symbol id="i-exchange-alt" viewBox="0 0 512 512">
    <path fill="currentColor" d="M32 96l320 0V32c0-12.9 7.8-24.6 19.8-29.6s25.7-2.2 34.9 6.9l96 96c6 6 9.4 14.1 9.4 22.6s-3.4 16.6-9.4 22.6l-96 96c-9.2 9.2-22.9 11.9-34.9 6.9s-19.8-16.6-19.8-29.6V160L32 160c-17.7 0-32-14.3-32-32s14.3-32 32-32zM480 352c17.7 0 32 14.3 32 32s-14.3 32-32 32H160v64c0 12.9-7.8 24.6-19.8 29.6s-25.7 2.2-34.9-6.9l-96-96c-6-6-9.4-14.1-9.4-22.6s3.4-16.6 9.4-22.6l96-96c9.2-9.2 22.9-11.9 34.9-6.9s19.8 16.6 19.8 29.6l0 64H480z"/>
  </symbol>

  <symbol id="i-feather-alt" viewBox="0 0 512 512">
    <path fill="currentColor" d="M278.5 215.6L23 471c-9.4 9.4-9.4 24.6 0 33.9s24.6 9.4 33.9 0l74.8-74.8c7.4 4.6 15.3 8.2 23.8 10.5C200.3 452.8 270 454.5 338 409.4c12.2-8.1 5.8-25.4-8.8-25.4l-16.1 0c-5.1 0-9.2-4.1-9.2-9.2c0-4.1 2.7-7.6 6.5-8.8l97.7-29.3c3.4-1 6.4-3.1 8.4-6.1c4.4-6.4 8.6-12.9 12.6-19.6c6.2-10.3-1.5-23-13.5-23l-38.6 0c-5.1 0-9.2-4.1-9.2-9.2c0-4.1 2.7-7.6 6.5-8.8l80.9-24.3c4.6-1.4 8.4-4.8 10.2-9.3C494.5 163 507.8 86.1 511.9 36.8c.8-9.9-3-19.6-10-26.6s-16.7-10.8-26.6-10C391.5 7 228.5 40.5 137.4 131.6C57.3 211.7 56.7 302.3 71.3 356.4c2.1 7.9 12 9.6 17.8 3.8L253.6 195.8c6.2-6.2 16.4-6.2 22.6 0c5.4 5.4 6.1 13.6 2.2 19.8z"/>
  </symbol>

  <symbol id="i-file-medical" viewBox="0 0 384 512">
    <path fill="currentColor" d="M64 0C28.7 0 0 28.7 0 64V448c0 35.3 28.7 64 64 64H320c35.3 0 64-28.7 64-64V160H256c-17.7 0-32-14.3-32-32V0H64zM256 0V128H384L256 0zM160 240c0-8.8 7.2-16 16-16h32c8.8 0 16 7.2 16 16v48h48c8.8 0 16 7.2 16 16v32c0 8.8-7.2 16-16 16H224v48c0 8.8-7.2 16-16 16H176c-8.8 0-16-7.2-16-16V352H112c-8.8 0-16-7.2-16-16V304c0-8.8 7.2-16 16-16h48V240z"/>
  </symbol>

  <symbol id="i-fire" viewBox="0 0 448 512">
    <path fill="currentColor" d="M159.3 5.4c7.8-7.3 19.9-7.2 27.7 .1c27.6 25.9 53.5 53.8 77.7 84c11-14.4 23.5-30.1 37-42.9c7.9-7.4 20.1-7.4 28 .1c34.6 33 63.9 76.6 84.5 118c20.3 40.8 33.8 82.5 33.8 111.9C448 404.2 348.2 512 224 512C98.4 512 0 404.1 0 276.5c0-38.4 17.8-85.3 45.4-131.7C73.3 97.7 112.7 48.6 159.3 5.4zM225.7 416c25.3 0 47.7-7 68.8-21c42.1-29.4 53.4-88.2 28.1-134.4c-4.5-9-16-9.6-22.5-2l-25.2 29.3c-6.6 7.6-18.5 7.4-24.7-.5c-16.5-21-46-58.5-62.8-79.8c-6.3-8-18.3-8.1-24.7-.1c-33.8 42.5-50.8 69.3-50.8 99.4C112 375.4 162.6 416 225.7 416z"/>
  </symbol>

  <symbol id="i-gift" viewBox="0 0 512 512">
    <path fill="currentColor" d="M190.5 68.8L225.3 128H224 152c-22.1 0-40-17.9-40-40s17.9-40 40-40h2.2c14.9 0 28.8 7.9 36.3 20.8zM64 88c0 14.4 3.5 28 9.6 40H32c-17.7 0-32 14.3-32 32v64c0 17.7 14.3 32 32 32H480c17.7 0 32-14.3 32-32V160c0-17.7-14.3-32-32-32H438.4c6.1-12 9.6-25.6 9.6-40c0-48.6-39.4-88-88-88h-2.2c-31.9 0-61.5 16.9-77.7 44.4L256 85.5l-24.1-41C215.7 16.9 186.1 0 154.2 0H152C103.4 0 64 39.4 64 88zm336 0c0 22.1-17.9 40-40 40H288h-1.3l34.8-59.2C329.1 55.9 342.9 48 357.8 48H360c22.1 0 40 17.9 40 40zM32 288V464c0 26.5 21.5 48 48 48H224V288H32zM288 512H432c26.5 0 48-21.5 48-48V288H288V512z"/>
  </symbol>

  <symbol id="i-hand-sparkles" viewBox="0 0 640 512">
    <path fill="currentColor" d="M320 0c17.7 0 32 14.3 32 32V240c0 8.8 7.2 16 16 16s16-7.2 16-16V64c0-17.7 14.3-32 32-32s32 14.3 32 32V240c0 8.8 7.2 16 16 16s16-7.2 16-16V128c0-17.7 14.3-32 32-32s32 14.3 32 32V323.1c-11.9 4.8-21.3 14.9-25 27.8l-8.9 31.2L478.9 391C460.6 396.3 448 413 448 432c0 18.9 12.5 35.6 30.6 40.9C448.4 497.4 409.9 512 368 512H348.8c-59.6 0-116.9-22.9-160-64L76.4 341c-16-15.2-16.6-40.6-1.4-56.6s40.6-16.6 56.6-1.4l60.5 57.6c0-1.5-.1-3.1-.1-4.6V64c0-17.7 14.3-32 32-32s32 14.3 32 32V240c0 8.8 7.2 16 16 16s16-7.2 16-16V32c0-17.7 14.3-32 32-32zm-7.3 326.6c-1.1-3.9-4.7-6.6-8.7-6.6s-7.6 2.7-8.7 6.6L288 352l-25.4 7.3c-3.9 1.1-6.6 4.7-6.6 8.7s2.7 7.6 6.6 8.7L288 384l7.3 25.4c1.1 3.9 4.7 6.6 8.7 6.6s7.6-2.7 8.7-6.6L320 384l25.4-7.3c3.9-1.1 6.6-4.7 6.6-8.7s-2.7-7.6-6.6-8.7L320 352l-7.3-25.4zM104 120l48.3 13.8c4.6 1.3 7.7 5.5 7.7 10.2s-3.1 8.9-7.7 10.2L104 168 90.2 216.3c-1.3 4.6-5.5 7.7-10.2 7.7s-8.9-3.1-10.2-7.7L56 168 7.7 154.2C3.1 152.9 0 148.7 0 144s3.1-8.9 7.7-10.2L56 120 69.8 71.7C71.1 67.1 75.3 64 80 64s8.9 3.1 10.2 7.7L104 120zM584 408l48.3 13.8c4.6 1.3 7.7 5.5 7.7 10.2s-3.1 8.9-7.7 10.2L584 456l-13.8 48.3c-1.3 4.6-5.5 7.7-10.2 7.7s-8.9-3.1-10.2-7.7L536 456l-48.3-13.8c-4.6-1.3-7.7-5.5-7.7-10.2s3.1-8.9 7.7-10.2L536 408l13.8-48.3c1.3-4.6 5.5-7.7 10.2-7.7s8.9 3.1 10.2 7.7L584 408z"/>
  </symbol>

  <symbol id="i-heart" viewBox="0 0 512 512">
    <path fill="currentColor" d="M47.6 300.4L228.3 469.1c7.5 7 17.4 10.9 27.7 10.9s20.2-3.9 27.7-10.9L464.4 300.4c30.4-28.3 47.6-68 47.6-109.5v-5.8c0-69.9-50.5-129.5-119.4-141C347 36.5 300.6 51.4 268 84L256 96 244 84c-32.6-32.6-79-47.5-124.6-39.9C50.5 55.6 0 115.2 0 185.1v5.8c0 41.5 17.2 81.2 47.6 109.5z"/>
  </symbol>

  <symbol id="i-image" viewBox="0 0 512 512">
    <path fill="currentColor" d="M0 96C0 60.7 28.7 32 64 32H448c35.3 0 64 28.7 64 64V416c0 35.3-28.7 64-64 64H64c-35.3 0-64-28.7-64-64V96zM323.8 202.5c-4.5-6.6-11.9-10.5-19.8-10.5s-15.4 3.9-19.8 10.5l-87 127.6L170.7 297c-4.6-5.7-11.5-9-18.7-9s-14.2 3.3-18.7 9l-64 80c-5.8 7.2-6.9 17.1-2.9 25.4s12.4 13.6 21.6 13.6h96 32H424c8.9 0 17.1-4.9 21.2-12.8s3.6-17.4-1.4-24.7l-120-176zM112 192a48 48 0 1 0 0-96 48 48 0 1 0 0 96z"/>
  </symbol>

  <symbol id="i-infinity" viewBox="0 0 640 512">
    <path fill="currentColor" d="M0 241.1C0 161 65 96 145.1 96c38.5 0 75.4 15.3 102.6 42.5L320 210.7l72.2-72.2C419.5 111.3 456.4 96 494.9 96C575 96 640 161 640 241.1v29.7C640 351 575 416 494.9 416c-38.5 0-75.4-15.3-102.6-42.5L320 301.3l-72.2 72.2C220.5 400.7 183.6 416 145.1 416C65 416 0 351 0 270.9V241.1zM274.7 256l-72.2-72.2c-15.2-15.2-35.9-23.8-57.4-23.8C100.3 160 64 196.3 64 241.1v29.7c0 44.8 36.3 81.1 81.1 81.1c21.5 0 42.2-8.5 57.4-23.8L274.7 256zm90.5 0l72.2 72.2c15.2 15.2 35.9 23.8 57.4 23.8c44.8 0 81.1-36.3 81.1-81.1V241.1c0-44.8-36.3-81.1-81.1-81.1c-21.5 0-42.2 8.5-57.4 23.8L365.3 256z"/>
  </symbol>

  <symbol id="i-key" viewBox="0 0 512 512">
    <path fill="currentColor" d="M336 352c97.2 0 176-78.8 176-176S433.2 0 336 0S160 78.8 160 176c0 18.7 2.9 36.8 8.3 53.7L7 391c-4.5 4.5-7 10.6-7 17v80c0 13.3 10.7 24 24 24h80c13.3 0 24-10.7 24-24V448h40c13.3 0 24-10.7 24-24V384h40c6.4 0 12.5-2.5 17-7l33.3-33.3c16.9 5.4 35 8.3 53.7 8.3zM376 96a40 40 0 1 1 0 80 40 40 0 1 1 0-80z"/>
  </symbol>

  <symbol id="i-layer-group" viewBox="0 0 576 512">
    <path fill="currentColor" d="M264.5 5.2c14.9-6.9 32.1-6.9 47 0l218.6 101c8.5 3.9 13.9 12.4 13.9 21.8s-5.4 17.9-13.9 21.8l-218.6 101c-14.9 6.9-32.1 6.9-47 0L45.9 149.8C37.4 145.8 32 137.3 32 128s5.4-17.9 13.9-21.8L264.5 5.2zM476.9 209.6l53.2 24.6c8.5 3.9 13.9 12.4 13.9 21.8s-5.4 17.9-13.9 21.8l-218.6 101c-14.9 6.9-32.1 6.9-47 0L45.9 277.8C37.4 273.8 32 265.3 32 256s5.4-17.9 13.9-21.8l53.2-24.6 152 70.2c23.4 10.8 50.4 10.8 73.8 0l152-70.2zm-152 198.2l152-70.2 53.2 24.6c8.5 3.9 13.9 12.4 13.9 21.8s-5.4 17.9-13.9 21.8l-218.6 101c-14.9 6.9-32.1 6.9-47 0L45.9 405.8C37.4 401.8 32 393.3 32 384s5.4-17.9 13.9-21.8l53.2-24.6 152 70.2c23.4 10.8 50.4 10.8 73.8 0z"/>
  </symbol>

  <symbol id="i-leaf" viewBox="0 0 512 512">
    <path fill="currentColor" d="M272 96c-78.6 0-145.1 51.5-167.7 122.5c33.6-17 71.5-26.5 111.7-26.5h88c8.8 0 16 7.2 16 16s-7.2 16-16 16H288 216s0 0 0 0c-16.6 0-32.7 1.9-48.2 5.4c-25.9 5.9-50 16.4-71.4 30.7c0 0 0 0 0 0C38.3 298.8 0 364.9 0 440v16c0 13.3 10.7 24 24 24s24-10.7 24-24V440c0-48.7 20.7-92.5 53.8-123.2C121.6 392.3 190.3 448 272 448l1 0c132.1-.7 239-130.9 239-291.4c0-42.6-7.5-83.1-21.1-119.6c-2.6-6.9-12.7-6.6-16.2-.1C455.9 72.1 418.7 96 376 96L272 96z"/>
  </symbol>

  <symbol id="i-magic" viewBox="0 0 576 512">
    <path fill="currentColor" d="M234.7 42.7L197 56.8c-3 1.1-5 4-5 7.2s2 6.1 5 7.2l37.7 14.1L248.8 123c1.1 3 4 5 7.2 5s6.1-2 7.2-5l14.1-37.7L315 71.2c3-1.1 5-4 5-7.2s-2-6.1-5-7.2L277.3 42.7 263.2 5c-1.1-3-4-5-7.2-5s-6.1 2-7.2 5L234.7 42.7zM46.1 395.4c-18.7 18.7-18.7 49.1 0 67.9l34.6 34.6c18.7 18.7 49.1 18.7 67.9 0L529.9 116.5c18.7-18.7 18.7-49.1 0-67.9L495.3 14.1c-18.7-18.7-49.1-18.7-67.9 0L46.1 395.4zM484.6 82.6l-105 105-23.3-23.3 105-105 23.3 23.3zM7.5 117.2C3 118.9 0 123.2 0 128s3 9.1 7.5 10.8L64 160l21.2 56.5c1.7 4.5 6 7.5 10.8 7.5s9.1-3 10.8-7.5L128 160l56.5-21.2c4.5-1.7 7.5-6 7.5-10.8s-3-9.1-7.5-10.8L128 96 106.8 39.5C105.1 35 100.8 32 96 32s-9.1 3-10.8 7.5L64 96 7.5 117.2zm352 256c-4.5 1.7-7.5 6-7.5 10.8s3 9.1 7.5 10.8L416 416l21.2 56.5c1.7 4.5 6 7.5 10.8 7.5s9.1-3 10.8-7.5L480 416l56.5-21.2c4.5-1.7 7.5-6 7.5-10.8s-3-9.1-7.5-10.8L480 352l-21.2-56.5c-1.7-4.5-6-7.5-10.8-7.5s-9.1 3-10.8 7.5L416 352l-56.5 21.2z"/>
  </symbol>

  <symbol id="i-male" viewBox="0 0 320 512">
    <path fill="currentColor" d="M112 48a48 48 0 1 1 96 0 48 48 0 1 1 -96 0zm40 304V480c0 17.7-14.3 32-32 32s-32-14.3-32-32V256.9L59.4 304.5c-9.1 15.1-28.8 20-43.9 10.9s-20-28.8-10.9-43.9l58.3-97c17.4-28.9 48.6-46.6 82.3-46.6h29.7c33.7 0 64.9 17.7 82.3 46.6l58.3 97c9.1 15.1 4.2 34.8-10.9 43.9s-34.8 4.2-43.9-10.9L232 256.9V480c0 17.7-14.3 32-32 32s-32-14.3-32-32V352H152z"/>
  </symbol>

  <symbol id="i-map-marked-alt" viewBox="0 0 576 512">
    <path fill="currentColor" d="M408 120c0 54.6-73.1 151.9-105.2 192c-7.7 9.6-22 9.6-29.6 0C241.1 271.9 168 174.6 168 120C168 53.7 221.7 0 288 0s120 53.7 120 120zm8 80.4c3.5-6.9 6.7-13.8 9.6-20.6c.5-1.2 1-2.5 1.5-3.7l116-46.4C558.9 123.4 576 135 576 152V422.8c0 9.8-6 18.6-15.1 22.3L416 503V200.4zM137.6 138.3c2.4 14.1 7.2 28.3 12.8 41.5c2.9 6.8 6.1 13.7 9.6 20.6V451.8L32.9 502.7C17.1 509 0 497.4 0 480.4V209.6c0-9.8 6-18.6 15.1-22.3l122.6-49zM327.8 332c13.9-17.4 35.7-45.7 56.2-77V504.3L192 449.4V255c20.5 31.3 42.3 59.6 56.2 77c20.5 25.6 59.1 25.6 79.6 0zM288 152a40 40 0 1 0 0-80 40 40 0 1 0 0 80z"/>
  </symbol>

  <symbol id="i-map-marker-alt" viewBox="0 0 384 512">
    <path fill="currentColor" d="M215.7 499.2C267 435 384 279.4 384 192C384 86 298 0 192 0S0 86 0 192c0 87.4 117 243 168.3 307.2c12.3 15.3 35.1 15.3 47.4 0zM192 128a64 64 0 1 1 0 128 64 64 0 1 1 0-128z"/>
  </symbol>

  <symbol id="i-medal" viewBox="0 0 512 512">
    <path fill="currentColor" d="M4.1 38.2C1.4 34.2 0 29.4 0 24.6C0 11 11 0 24.6 0H133.9c11.2 0 21.7 5.9 27.4 15.5l68.5 114.1c-48.2 6.1-91.3 28.6-123.4 61.9L4.1 38.2zm503.7 0L405.6 191.5c-32.1-33.3-75.2-55.8-123.4-61.9L350.7 15.5C356.5 5.9 366.9 0 378.1 0H487.4C501 0 512 11 512 24.6c0 4.8-1.4 9.6-4.1 13.6zM80 336a176 176 0 1 1 352 0A176 176 0 1 1 80 336zm184.4-94.9c-3.4-7-13.3-7-16.8 0l-22.4 45.4c-1.4 2.8-4 4.7-7 5.1L168 298.9c-7.7 1.1-10.7 10.5-5.2 16l36.3 35.4c2.2 2.2 3.2 5.2 2.7 8.3l-8.6 49.9c-1.3 7.6 6.7 13.5 13.6 9.9l44.8-23.6c2.7-1.4 6-1.4 8.7 0l44.8 23.6c6.9 3.6 14.9-2.2 13.6-9.9l-8.6-49.9c-.5-3 .5-6.1 2.7-8.3l36.3-35.4c5.6-5.4 2.5-14.8-5.2-16l-50.1-7.3c-3-.4-5.7-2.4-7-5.1l-22.4-45.4z"/>
  </symbol>

  <symbol id="i-microchip" viewBox="0 0 512 512">
    <path fill="currentColor" d="M176 24c0-13.3-10.7-24-24-24s-24 10.7-24 24V64c-35.3 0-64 28.7-64 64H24c-13.3 0-24 10.7-24 24s10.7 24 24 24H64v56H24c-13.3 0-24 10.7-24 24s10.7 24 24 24H64v56H24c-13.3 0-24 10.7-24 24s10.7 24 24 24H64c0 35.3 28.7 64 64 64v40c0 13.3 10.7 24 24 24s24-10.7 24-24V448h56v40c0 13.3 10.7 24 24 24s24-10.7 24-24V448h56v40c0 13.3 10.7 24 24 24s24-10.7 24-24V448c35.3 0 64-28.7 64-64h40c13.3 0 24-10.7 24-24s-10.7-24-24-24H448V280h40c13.3 0 24-10.7 24-24s-10.7-24-24-24H448V176h40c13.3 0 24-10.7 24-24s-10.7-24-24-24H448c0-35.3-28.7-64-64-64V24c0-13.3-10.7-24-24-24s-24 10.7-24 24V64H280V24c0-13.3-10.7-24-24-24s-24 10.7-24 24V64H176V24zM160 128H352c17.7 0 32 14.3 32 32V352c0 17.7-14.3 32-32 32H160c-17.7 0-32-14.3-32-32V160c0-17.7 14.3-32 32-32zm192 32H160V352H352V160z"/>
  </symbol>

  <symbol id="i-microscope" viewBox="0 0 512 512">
    <path fill="currentColor" d="M160 32c0-17.7 14.3-32 32-32h32c17.7 0 32 14.3 32 32c17.7 0 32 14.3 32 32V288c0 17.7-14.3 32-32 32c0 17.7-14.3 32-32 32H192c-17.7 0-32-14.3-32-32c-17.7 0-32-14.3-32-32V64c0-17.7 14.3-32 32-32zM32 448H320c70.7 0 128-57.3 128-128s-57.3-128-128-128V128c106 0 192 86 192 192c0 49.2-18.5 94-48.9 128H480c17.7 0 32 14.3 32 32s-14.3 32-32 32H320 32c-17.7 0-32-14.3-32-32s14.3-32 32-32zm80-64H304c8.8 0 16 7.2 16 16s-7.2 16-16 16H112c-8.8 0-16-7.2-16-16s7.2-16 16-16z"/>
  </symbol>

  <symbol id="i-parking" viewBox="0 0 448 512">
    <path fill="currentColor" d="M64 32C28.7 32 0 60.7 0 96V416c0 35.3 28.7 64 64 64H384c35.3 0 64-28.7 64-64V96c0-35.3-28.7-64-64-64H64zM192 256h48c17.7 0 32-14.3 32-32s-14.3-32-32-32H192v64zm48 64H192v32c0 17.7-14.3 32-32 32s-32-14.3-32-32V288 168c0-22.1 17.9-40 40-40h72c53 0 96 43 96 96s-43 96-96 96z"/>
  </symbol>

  <symbol id="i-phone-alt" viewBox="0 0 512 512">
    <path fill="currentColor" d="M164.9 24.6c-7.7-18.6-28-28.5-47.4-23.2l-88 24C12.1 30.2 0 46 0 64C0 311.4 200.6 512 448 512c18 0 33.8-12.1 38.6-29.5l24-88c5.3-19.4-4.6-39.7-23.2-47.4l-96-40c-16.3-6.8-35.2-2.1-46.3 11.6L304.7 368C234.3 334.7 177.3 277.7 144 207.3L193.3 167c13.7-11.2 18.4-30 11.6-46.3l-40-96z"/>
  </symbol>

  <symbol id="i-plus" viewBox="0 0 448 512">
    <path fill="currentColor" d="M256 80c0-17.7-14.3-32-32-32s-32 14.3-32 32V224H48c-17.7 0-32 14.3-32 32s14.3 32 32 32H192V432c0 17.7 14.3 32 32 32s32-14.3 32-32V288H400c17.7 0 32-14.3 32-32s-14.3-32-32-32H256V80z"/>
  </symbol>

  <symbol id="i-quote-right" viewBox="0 0 448 512">
    <path fill="currentColor" d="M448 296c0 66.3-53.7 120-120 120h-8c-17.7 0-32-14.3-32-32s14.3-32 32-32h8c30.9 0 56-25.1 56-56v-8H320c-35.3 0-64-28.7-64-64V160c0-35.3 28.7-64 64-64h64c35.3 0 64 28.7 64 64v32 32 72zm-256 0c0 66.3-53.7 120-120 120H64c-17.7 0-32-14.3-32-32s14.3-32 32-32h8c30.9 0 56-25.1 56-56v-8H64c-35.3 0-64-28.7-64-64V160c0-35.3 28.7-64 64-64h64c35.3 0 64 28.7 64 64v32 32 72z"/>
  </symbol>

  <symbol id="i-running" viewBox="0 0 448 512">
    <path fill="currentColor" d="M320 48a48 48 0 1 0 -96 0 48 48 0 1 0 96 0zM125.7 175.5c9.9-9.9 23.4-15.5 37.5-15.5c1.9 0 3.8 .1 5.6 .3L137.6 254c-9.3 28 1.7 58.8 26.8 74.5l86.2 53.9-25.4 88.8c-4.9 17 5 34.7 22 39.6s34.7-5 39.6-22l28.7-100.4c5.9-20.6-2.6-42.6-20.7-53.9L238 299l30.9-82.4 5.1 12.3C289 264.7 323.9 288 362.7 288H384c17.7 0 32-14.3 32-32s-14.3-32-32-32H362.7c-12.9 0-24.6-7.8-29.5-19.7l-6.3-15c-14.6-35.1-44.1-61.9-80.5-73.1l-48.7-15c-11.1-3.4-22.7-5.2-34.4-5.2c-31 0-60.8 12.3-82.7 34.3L57.4 153.4c-12.5 12.5-12.5 32.8 0 45.3s32.8 12.5 45.3 0l23.1-23.1zM91.2 352H32c-17.7 0-32 14.3-32 32s14.3 32 32 32h69.6c19 0 36.2-11.2 43.9-28.5L157 361.6l-9.5-6c-17.5-10.9-30.5-26.8-37.9-44.9L91.2 352z"/>
  </symbol>

  <symbol id="i-search-plus" viewBox="0 0 512 512">
    <path fill="currentColor" d="M416 208c0 45.9-14.9 88.3-40 122.7L502.6 457.4c12.5 12.5 12.5 32.8 0 45.3s-32.8 12.5-45.3 0L330.7 376c-34.4 25.2-76.8 40-122.7 40C93.1 416 0 322.9 0 208S93.1 0 208 0S416 93.1 416 208zM184 296c0 13.3 10.7 24 24 24s24-10.7 24-24V232h64c13.3 0 24-10.7 24-24s-10.7-24-24-24H232V120c0-13.3-10.7-24-24-24s-24 10.7-24 24v64H120c-13.3 0-24 10.7-24 24s10.7 24 24 24h64v64z"/>
  </symbol>

  <symbol id="i-shield-alt" viewBox="0 0 512 512">
    <path fill="currentColor" d="M256 0c4.6 0 9.2 1 13.4 2.9L457.7 82.8c22 9.3 38.4 31 38.3 57.2c-.5 99.2-41.3 280.7-213.6 363.2c-16.7 8-36.1 8-52.8 0C57.3 420.7 16.5 239.2 16 140c-.1-26.2 16.3-47.9 38.3-57.2L242.7 2.9C246.8 1 251.4 0 256 0zm0 66.8V444.8C394 378 431.1 230.1 432 141.4L256 66.8l0 0z"/>
  </symbol>

  <symbol id="i-shopping-bag" viewBox="0 0 448 512">
    <path fill="currentColor" d="M160 112c0-35.3 28.7-64 64-64s64 28.7 64 64v48H160V112zm-48 48H48c-26.5 0-48 21.5-48 48V416c0 53 43 96 96 96H352c53 0 96-43 96-96V208c0-26.5-21.5-48-48-48H336V112C336 50.1 285.9 0 224 0S112 50.1 112 112v48zm24 48a24 24 0 1 1 0 48 24 24 0 1 1 0-48zm152 24a24 24 0 1 1 48 0 24 24 0 1 1 -48 0z"/>
  </symbol>

  <symbol id="i-shopping-cart" viewBox="0 0 576 512">
    <path fill="currentColor" d="M0 24C0 10.7 10.7 0 24 0H69.5c22 0 41.5 12.8 50.6 32h411c26.3 0 45.5 25 38.6 50.4l-41 152.3c-8.5 31.4-37 53.3-69.5 53.3H170.7l5.4 28.5c2.2 11.3 12.1 19.5 23.6 19.5H488c13.3 0 24 10.7 24 24s-10.7 24-24 24H199.7c-34.6 0-64.3-24.6-70.7-58.5L77.4 54.5c-.7-3.8-4-6.5-7.9-6.5H24C10.7 48 0 37.3 0 24zM128 464a48 48 0 1 1 96 0 48 48 0 1 1 -96 0zm336-48a48 48 0 1 1 0 96 48 48 0 1 1 0-96z"/>
  </symbol>

  <symbol id="i-smile" viewBox="0 0 512 512">
    <path fill="currentColor" d="M256 512A256 256 0 1 0 256 0a256 256 0 1 0 0 512zM164.1 325.5C182 346.2 212.6 368 256 368s74-21.8 91.9-42.5c5.8-6.7 15.9-7.4 22.6-1.6s7.4 15.9 1.6 22.6C349.8 372.1 311.1 400 256 400s-93.8-27.9-116.1-53.5c-5.8-6.7-5.1-16.8 1.6-22.6s16.8-5.1 22.6 1.6zM144.4 208a32 32 0 1 1 64 0 32 32 0 1 1 -64 0zm192-32a32 32 0 1 1 0 64 32 32 0 1 1 0-64z"/>
  </symbol>

  <symbol id="i-snowflake" viewBox="0 0 448 512">
    <path fill="currentColor" d="M224 0c17.7 0 32 14.3 32 32V62.1l15-15c9.4-9.4 24.6-9.4 33.9 0s9.4 24.6 0 33.9l-49 49v70.3l61.4-35.8 17.7-66.1c3.4-12.8 16.6-20.4 29.4-17s20.4 16.6 17 29.4l-5.2 19.3 23.6-13.8c15.3-8.9 34.9-3.7 43.8 11.5s3.8 34.9-11.5 43.8l-25.3 14.8 21.7 5.8c12.8 3.4 20.4 16.6 17 29.4s-16.6 20.4-29.4 17l-67.7-18.1L287.5 256l60.9 35.5 67.7-18.1c12.8-3.4 26 4.2 29.4 17s-4.2 26-17 29.4l-21.7 5.8 25.3 14.8c15.3 8.9 20.4 28.5 11.5 43.8s-28.5 20.4-43.8 11.5l-23.6-13.8 5.2 19.3c3.4 12.8-4.2 26-17 29.4s-26-4.2-29.4-17l-17.7-66.1L256 311.7v70.3l49 49c9.4 9.4 9.4 24.6 0 33.9s-24.6 9.4-33.9 0l-15-15V480c0 17.7-14.3 32-32 32s-32-14.3-32-32V449.9l-15 15c-9.4 9.4-24.6 9.4-33.9 0s-9.4-24.6 0-33.9l49-49V311.7l-61.4 35.8-17.7 66.1c-3.4 12.8-16.6 20.4-29.4 17s-20.4-16.6-17-29.4l5.2-19.3L48.1 395.6c-15.3 8.9-34.9 3.7-43.8-11.5s-3.7-34.9 11.5-43.8l25.3-14.8-21.7-5.8c-12.8-3.4-20.4-16.6-17-29.4s16.6-20.4 29.4-17l67.7 18.1L160.5 256 99.6 220.5 31.9 238.6c-12.8 3.4-26-4.2-29.4-17s4.2-26 17-29.4l21.7-5.8L15.9 171.6C.6 162.7-4.5 143.1 4.4 127.9s28.5-20.4 43.8-11.5l23.6 13.8-5.2-19.3c-3.4-12.8 4.2-26 17-29.4s26 4.2 29.4 17l17.7 66.1L192 200.3V129.9L143 81c-9.4-9.4-9.4-24.6 0-33.9s24.6-9.4 33.9 0l15 15V32c0-17.7 14.3-32 32-32z"/>
  </symbol>

  <symbol id="i-star" viewBox="0 0 576 512">
    <path fill="currentColor" d="M316.9 18C311.6 7 300.4 0 288.1 0s-23.4 7-28.8 18L195 150.3 51.4 171.5c-12 1.8-22 10.2-25.7 21.7s-.7 24.2 7.9 32.7L137.8 329 113.2 474.7c-2 12 3 24.2 12.9 31.3s23 8 33.8 2.3l128.3-68.5 128.3 68.5c10.8 5.7 23.9 4.9 33.8-2.3s14.9-19.3 12.9-31.3L438.5 329 542.7 225.9c8.6-8.5 11.7-21.2 7.9-32.7s-13.7-19.9-25.7-21.7L381.2 150.3 316.9 18z"/>
  </symbol>

  <symbol id="i-sun" viewBox="0 0 512 512">
    <path fill="currentColor" d="M361.5 1.2c5 2.1 8.6 6.6 9.6 11.9L391 121l107.9 19.8c5.3 1 9.8 4.6 11.9 9.6s1.5 10.7-1.6 15.2L446.9 256l62.3 90.3c3.1 4.5 3.7 10.2 1.6 15.2s-6.6 8.6-11.9 9.6L391 391 371.1 498.9c-1 5.3-4.6 9.8-9.6 11.9s-10.7 1.5-15.2-1.6L256 446.9l-90.3 62.3c-4.5 3.1-10.2 3.7-15.2 1.6s-8.6-6.6-9.6-11.9L121 391 13.1 371.1c-5.3-1-9.8-4.6-11.9-9.6s-1.5-10.7 1.6-15.2L65.1 256 2.8 165.7c-3.1-4.5-3.7-10.2-1.6-15.2s6.6-8.6 11.9-9.6L121 121 140.9 13.1c1-5.3 4.6-9.8 9.6-11.9s10.7-1.5 15.2 1.6L256 65.1 346.3 2.8c4.5-3.1 10.2-3.7 15.2-1.6zM160 256a96 96 0 1 1 192 0 96 96 0 1 1 -192 0zm224 0a128 128 0 1 0 -256 0 128 128 0 1 0 256 0z"/>
  </symbol>

  <symbol id="i-times" viewBox="0 0 384 512">
    <path fill="currentColor" d="M342.6 150.6c12.5-12.5 12.5-32.8 0-45.3s-32.8-12.5-45.3 0L192 210.7 86.6 105.4c-12.5-12.5-32.8-12.5-45.3 0s-12.5 32.8 0 45.3L146.7 256 41.4 361.4c-12.5 12.5-12.5 32.8 0 45.3s32.8 12.5 45.3 0L192 301.3 297.4 406.6c12.5 12.5 32.8 12.5 45.3 0s12.5-32.8 0-45.3L237.3 256 342.6 150.6z"/>
  </symbol>

  <symbol id="i-tshirt" viewBox="0 0 640 512">
    <path fill="currentColor" d="M211.8 0c7.8 0 14.3 5.7 16.7 13.2C240.8 51.9 277.1 80 320 80s79.2-28.1 91.5-66.8C413.9 5.7 420.4 0 428.2 0h12.6c22.5 0 44.2 7.9 61.5 22.3L628.5 127.4c6.6 5.5 10.7 13.5 11.4 22.1s-2.1 17.1-7.8 23.6l-56 64c-11.4 13.1-31.2 14.6-44.6 3.5L480 197.7V448c0 35.3-28.7 64-64 64H224c-35.3 0-64-28.7-64-64V197.7l-51.5 42.9c-13.3 11.1-33.1 9.6-44.6-3.5l-56-64c-5.7-6.5-8.5-15-7.8-23.6s4.8-16.6 11.4-22.1L137.7 22.3C155 7.9 176.7 0 199.2 0h12.6z"/>
  </symbol>

  <symbol id="i-user-md" viewBox="0 0 448 512">
    <path fill="currentColor" d="M224 256A128 128 0 1 0 224 0a128 128 0 1 0 0 256zm-96 55.2C54 332.9 0 401.3 0 482.3C0 498.7 13.3 512 29.7 512H418.3c16.4 0 29.7-13.3 29.7-29.7c0-81-54-149.4-128-171.1V362c27.6 7.1 48 32.2 48 62v40c0 8.8-7.2 16-16 16H336c-8.8 0-16-7.2-16-16s7.2-16 16-16V424c0-17.7-14.3-32-32-32s-32 14.3-32 32v24c8.8 0 16 7.2 16 16s-7.2 16-16 16H256c-8.8 0-16-7.2-16-16V424c0-29.8 20.4-54.9 48-62V304.9c-6-.6-12.1-.9-18.3-.9H178.3c-6.2 0-12.3 .3-18.3 .9v65.4c23.1 6.9 40 28.3 40 53.7c0 30.9-25.1 56-56 56s-56-25.1-56-56c0-25.4 16.9-46.8 40-53.7V311.2zM144 448a24 24 0 1 0 0-48 24 24 0 1 0 0 48z"/>
  </symbol>

  <symbol id="i-walking" viewBox="0 0 320 512">
    <path fill="currentColor" d="M160 48a48 48 0 1 1 96 0 48 48 0 1 1 -96 0zM126.5 199.3c-1 .4-1.9 .8-2.9 1.2l-8 3.5c-16.4 7.3-29 21.2-34.7 38.2l-2.6 7.8c-5.6 16.8-23.7 25.8-40.5 20.2s-25.8-23.7-20.2-40.5l2.6-7.8c11.4-34.1 36.6-61.9 69.4-76.5l8-3.5c20.8-9.2 43.3-14 66.1-14c44.6 0 84.8 26.8 101.9 67.9L281 232.7l21.4 10.7c15.8 7.9 22.2 27.1 14.3 42.9s-27.1 22.2-42.9 14.3L247 287.3c-10.3-5.2-18.4-13.8-22.8-24.5l-9.6-23-19.3 65.5 49.5 54c5.4 5.9 9.2 13 11.2 20.8l23 92.1c4.3 17.1-6.1 34.5-23.3 38.8s-34.5-6.1-38.8-23.3l-22-88.1-70.7-77.1c-14.8-16.1-20.3-38.6-14.7-59.7l16.9-63.5zM68.7 398l25-62.4c2.1 3 4.5 5.8 7 8.6l40.7 44.4-14.5 36.2c-2.4 6-6 11.5-10.6 16.1L54.6 502.6c-12.5 12.5-32.8 12.5-45.3 0s-12.5-32.8 0-45.3L68.7 398z"/>
  </symbol>

  <symbol id="i-wave-square" viewBox="0 0 640 512">
    <path fill="currentColor" d="M128 64c0-17.7 14.3-32 32-32H320c17.7 0 32 14.3 32 32V416h96V256c0-17.7 14.3-32 32-32H608c17.7 0 32 14.3 32 32s-14.3 32-32 32H512V448c0 17.7-14.3 32-32 32H320c-17.7 0-32-14.3-32-32V96H192V256c0 17.7-14.3 32-32 32H32c-17.7 0-32-14.3-32-32s14.3-32 32-32h96V64z"/>
  </symbol>

  <symbol id="i-clock-outline" viewBox="0 0 512 512">
    <path fill="currentColor" d="M464 256A208 208 0 1 1 48 256a208 208 0 1 1 416 0zM0 256a256 256 0 1 0 512 0A256 256 0 1 0 0 256zM232 120V256c0 8 4 15.5 10.7 20l96 64c11 7.4 25.9 4.4 33.3-6.7s4.4-25.9-6.7-33.3L280 243.2V120c0-13.3-10.7-24-24-24s-24 10.7-24 24z"/>
  </symbol>

  <symbol id="i-instagram" viewBox="0 0 448 512">
    <path fill="currentColor" d="M224.1 141c-63.6 0-114.9 51.3-114.9 114.9s51.3 114.9 114.9 114.9S339 319.5 339 255.9 287.7 141 224.1 141zm0 189.6c-41.1 0-74.7-33.5-74.7-74.7s33.5-74.7 74.7-74.7 74.7 33.5 74.7 74.7-33.6 74.7-74.7 74.7zm146.4-194.3c0 14.9-12 26.8-26.8 26.8-14.9 0-26.8-12-26.8-26.8s12-26.8 26.8-26.8 26.8 12 26.8 26.8zm76.1 27.2c-1.7-35.9-9.9-67.7-36.2-93.9-26.2-26.2-58-34.4-93.9-36.2-37-2.1-147.9-2.1-184.9 0-35.8 1.7-67.6 9.9-93.9 36.1s-34.4 58-36.2 93.9c-2.1 37-2.1 147.9 0 184.9 1.7 35.9 9.9 67.7 36.2 93.9s58 34.4 93.9 36.2c37 2.1 147.9 2.1 184.9 0 35.9-1.7 67.7-9.9 93.9-36.2 26.2-26.2 34.4-58 36.2-93.9 2.1-37 2.1-147.8 0-184.8zM398.8 388c-7.8 19.6-22.9 34.7-42.6 42.6-29.5 11.7-99.5 9-132.1 9s-102.7 2.6-132.1-9c-19.6-7.8-34.7-22.9-42.6-42.6-11.7-29.5-9-99.5-9-132.1s-2.6-102.7 9-132.1c7.8-19.6 22.9-34.7 42.6-42.6 29.5-11.7 99.5-9 132.1-9s102.7-2.6 132.1 9c19.6 7.8 34.7 22.9 42.6 42.6 11.7 29.5 9 99.5 9 132.1s2.7 102.7-9 132.1z"/>
  </symbol>

  <symbol id="i-vk" viewBox="0 0 448 512">
    <path fill="currentColor" d="M31.4907 63.4907C0 94.9813 0 145.671 0 247.04V264.96C0 366.329 0 417.019 31.4907 448.509C62.9813 480 113.671 480 215.04 480H232.96C334.329 480 385.019 480 416.509 448.509C448 417.019 448 366.329 448 264.96V247.04C448 145.671 448 94.9813 416.509 63.4907C385.019 32 334.329 32 232.96 32H215.04C113.671 32 62.9813 32 31.4907 63.4907ZM75.6 168.267H126.747C128.427 253.76 166.133 289.973 196 297.44V168.267H244.16V242C273.653 238.827 304.64 205.227 315.093 168.267H363.253C359.313 187.435 351.46 205.583 340.186 221.579C328.913 237.574 314.461 251.071 297.733 261.227C316.41 270.499 332.907 283.63 346.132 299.751C359.357 315.873 369.01 334.618 374.453 354.747H321.44C316.555 337.262 306.614 321.61 292.865 309.754C279.117 297.899 262.173 290.368 244.16 288.107V354.747H238.373C136.267 354.747 78.0267 284.747 75.6 168.267Z"/>
  </symbol>

  <symbol id="i-yandex" viewBox="0 0 256 512">
    <path fill="currentColor" d="M153.1 315.8L65.7 512H2l96-209.8c-45.1-22.9-75.2-64.4-75.2-141.1C22.7 53.7 90.8 0 171.7 0H254v512h-55.1V315.8h-45.8zm45.8-269.3h-29.4c-44.4 0-87.4 29.4-87.4 114.6 0 82.3 39.4 108.8 87.4 108.8h29.4V46.5z"/>
  </symbol>
</svg>
