<?xml version="1.0" encoding="UTF-8"?>
<svg id="_Слой_1" xmlns="http://www.w3.org/2000/svg" version="1.1" viewBox="0 0 41.96 42">
  <!-- Generator: Adobe Illustrator 30.1.0, SVG Export Plug-In . SVG Version: 2.1.1 Build 136)  -->
  <defs>
    <style>
      .st0 {
        fill: #44c8d2;
        fill-rule: evenodd;
      }
    </style>
  </defs>
  <path class="st0" d="M21.47,41.88c-4.11,0-6.02-.6-9.34-3-2.1,2.7-8.75,4.81-9.04,1.2,0-2.71-.6-5-1.28-7.5C1,29.5.08,26.07.08,21.1.08,9.23,9.82.3,21.36.3s20.6,9.37,20.6,20.91c.04,11.36-9.13,20.61-20.49,20.67ZM21.64,10.56c-5.62-.29-10,3.6-10.97,9.7-.8,5.05.62,11.2,1.83,11.52.58.14,2.04-1.04,2.95-1.95,1.5,1.04,3.26,1.66,5.08,1.81,5.82.28,10.8-4.15,11.19-9.97.23-5.83-4.26-10.77-10.08-11.1h0Z"/>
</svg>